<svg width="153px" height="60px" viewBox="0 0 153 60" version="1.1" xmlns="http://www.w3.org/2000/svg" xmlns:xlink="http://www.w3.org/1999/xlink">
    <g id="pages" stroke="none" stroke-width="1" fill="none" fill-rule="evenodd">
        <g id="logos" transform="translate(-180.000000, -103.000000)">
            <g id="logo" transform="translate(180.000000, 99.000000)">
                <polygon id="Rectangle-2" fill="#70C8FF" points="39.6265782 4 59.6265782 4 48 64 28 64"></polygon>
                <polygon id="Rectangle-2" fill="#FF0000" points="11.6265782 4 31.6265782 4 20 64 0 64"></polygon>
                <path d="M83.0390625,38.4882812 C90.3046875,38.4882812 95.5,34.0742188 95.8320312,27.375 L88.9375,27.375 C88.4882812,30.6757812 86.203125,32.7460938 83.0585938,32.7460938 C79.1132812,32.7460938 76.6523438,29.40625 76.6523438,23.8789062 C76.6523438,18.4101562 79.1328125,15.0703125 83.0390625,15.0703125 C86.1835938,15.0703125 88.546875,17.2578125 88.8984375,20.578125 L95.7929688,20.578125 C95.578125,13.9179688 90.1679688,9.328125 83.0390625,9.328125 C74.640625,9.328125 69.3476562,14.6992188 69.3476562,23.8984375 C69.3476562,33.1171875 74.6015625,38.4882812 83.0390625,38.4882812 Z M124.738281,38 L124.738281,9.81640625 L117.589844,9.81640625 L117.589844,20.8710938 L106.359375,20.8710938 L106.359375,9.81640625 L99.1914062,9.81640625 L99.1914062,38 L106.359375,38 L106.359375,26.6523437 L117.589844,26.6523437 L117.589844,38 L124.738281,38 Z M142.472656,38 L129.015625,38 L129.015625,9.81640625 L142.121094,9.81640625 C147.667969,9.81640625 151.007812,12.4921875 151.007812,16.8476562 C151.007812,20.0117188 148.625,22.53125 145.5,22.9609375 L145.5,23.1171875 C149.308594,23.2929688 152.316406,26.125 152.316406,29.875 C152.316406,34.8164062 148.507812,38 142.472656,38 Z M136.183594,14.8945312 L136.183594,21.3007812 L139.875,21.3007812 C142.472656,21.3007812 144.035156,20.0703125 144.035156,18.0390625 C144.035156,16.0664062 142.628906,14.8945312 140.226562,14.8945312 L136.183594,14.8945312 Z M136.183594,32.921875 L140.441406,32.921875 C143.390625,32.921875 145.03125,31.6328125 145.03125,29.25 C145.03125,26.9453125 143.351562,25.65625 140.402344,25.65625 L136.183594,25.65625 L136.183594,32.921875 Z" id="CHB" fill="#000000"></path>
                <path d="M69.859375,52.6367188 C69.859375,54.0722656 70.796875,55.0390625 72.6523438,55.4882812 L74.4882812,55.9375 C75.5625,56.2109375 75.953125,56.5722656 75.953125,57.2265625 C75.953125,58.0566406 75.171875,58.5839844 73.9023438,58.5839844 C72.6132812,58.5839844 71.8515625,58.0371094 71.6855469,57.0507812 L69.5957031,57.0507812 C69.7617188,58.9355469 71.3730469,60.1953125 73.8046875,60.1953125 C76.3242188,60.1953125 78.0722656,58.90625 78.0722656,57.03125 C78.0722656,55.5175781 77.2910156,54.7363281 75.2207031,54.2382812 L73.4921875,53.8378906 C72.4277344,53.5742188 71.9199219,53.1445312 71.9199219,52.5097656 C71.9199219,51.6992188 72.6816406,51.1425781 73.8242188,51.1425781 C75.0058594,51.1425781 75.7578125,51.71875 75.8554688,52.6464844 L77.8378906,52.6464844 C77.7695312,50.8203125 76.1679688,49.5410156 73.8828125,49.5410156 C71.4804688,49.5410156 69.859375,50.8007812 69.859375,52.6367188 Z M80.328125,47.2949219 L80.328125,49.7265625 L78.8339844,49.7265625 L78.8339844,51.3964844 L80.328125,51.3964844 L80.328125,57.2949219 C80.328125,59.2773438 81.1386719,60.0683594 83.21875,60.0683594 C83.6875,60.0683594 84.15625,60.0292969 84.390625,59.9707031 L84.390625,58.3007812 C84.2539062,58.3300781 83.9121094,58.3496094 83.6972656,58.3496094 C82.8378906,58.3496094 82.4472656,57.9492188 82.4472656,57.0605469 L82.4472656,51.3964844 L84.4003906,51.3964844 L84.4003906,49.7265625 L82.4472656,49.7265625 L82.4472656,47.2949219 L80.328125,47.2949219 Z M94.9375,49.7265625 L92.828125,49.7265625 L92.828125,55.7128906 C92.828125,57.3144531 91.9101562,58.3691406 90.3867188,58.3691406 C88.9316406,58.3691406 88.1894531,57.5292969 88.1894531,55.9667969 L88.1894531,49.7265625 L86.0800781,49.7265625 L86.0800781,56.3769531 C86.0800781,58.7304688 87.4472656,60.1855469 89.6835938,60.1855469 C91.2558594,60.1855469 92.3007812,59.4921875 92.8671875,58.2617188 L92.9160156,58.2617188 L92.9160156,60 L94.9375,60 L94.9375,49.7265625 Z M100.875,60.1757812 C98.2773438,60.1757812 96.5585938,58.1054688 96.5585938,54.8632812 C96.5585938,51.6210938 98.2773438,49.5605469 100.855469,49.5605469 C102.330078,49.5605469 103.501953,50.3027344 104.078125,51.4355469 L104.117188,51.4355469 L104.117188,45.9082031 L106.236328,45.9082031 L106.236328,60 L104.185547,60 L104.185547,58.2519531 L104.146484,58.2519531 C103.541016,59.4238281 102.369141,60.1757812 100.875,60.1757812 Z M101.431641,51.3378906 C99.7617188,51.3378906 98.7167969,52.7050781 98.7167969,54.8632812 C98.7167969,57.03125 99.7617188,58.3886719 101.431641,58.3886719 C103.052734,58.3886719 104.136719,57.0117188 104.136719,54.8632812 C104.136719,52.734375 103.052734,51.3378906 101.431641,51.3378906 Z M108.462891,60 L110.572266,60 L110.572266,49.7265625 L108.462891,49.7265625 L108.462891,60 Z M109.517578,48.2226562 C110.201172,48.2226562 110.748047,47.6855469 110.748047,47.0214844 C110.748047,46.3476562 110.201172,45.8105469 109.517578,45.8105469 C108.84375,45.8105469 108.296875,46.3476562 108.296875,47.0214844 C108.296875,47.6855469 108.84375,48.2226562 109.517578,48.2226562 Z M117.144531,60.1953125 C114.205078,60.1953125 112.271484,58.1738281 112.271484,54.8632812 C112.271484,51.5625 114.214844,49.5410156 117.144531,49.5410156 C120.074219,49.5410156 122.017578,51.5625 122.017578,54.8632812 C122.017578,58.1738281 120.083984,60.1953125 117.144531,60.1953125 Z M117.144531,58.4570312 C118.804688,58.4570312 119.869141,57.1484375 119.869141,54.8632812 C119.869141,52.5878906 118.794922,51.2792969 117.144531,51.2792969 C115.494141,51.2792969 114.419922,52.5878906 114.419922,54.8632812 C114.419922,57.1484375 115.494141,58.4570312 117.144531,58.4570312 Z" id="studio" fill="#000000"></path>
            </g>
        </g>
    </g>
</svg>