<svg version="1" xmlns="http://www.w3.org/2000/svg" width="933.333" height="933.333" viewBox="0 0 700.000000 700.000000"><path d="M326.5.6C244.2 7.2 170 39.3 112 93.6 50.5 151.1 13.6 223.4 2.3 308.5c-2.4 18.3-2.4 64.7 0 83C13.6 476.6 50.5 548.9 112 606.4c53.6 50.2 120.4 81.2 196.5 91.3 18.3 2.4 64.7 2.4 83 0 76.1-10.1 142.9-41.1 196.5-91.3 61.5-57.5 98.4-129.8 109.7-214.9 2.4-18.3 2.4-64.7 0-83-11.3-85.1-48.2-157.3-109.7-214.9C534.7 43.7 466.6 12 392 2.5 380 .9 337.6-.3 326.5.6zm-43 214.8c7.5.6 21.6 4.7 31.5 9.1 34.6 15.2 62.1 46.8 63.8 73.2.5 8.1.5 8.2 2.6 6.8 2.7-2 8.6-1.9 11.4.1 5 3.5 6.8 12.8 3.7 20.1-2.2 5.1-1.9 5.5 2.2 3.8 5.7-2.4 12.6-8.2 18.8-15.6 4.5-5.5 6.2-6.9 8.4-6.9 5.9 0 19.6 12 22 19.2 1.5 4.5.4 7.3-14.9 40.8-17.7 38.6-26.2 60-28.5 71.7-.9 4.5 1 5 4.6 1.2 6.1-6.5 26.1-39.1 44.3-72.1 13.6-24.6 25.9-40.4 36.3-46.5 3.8-2.2 5.1-2.5 9.6-1.8 5.4.7 7.5.8 21.4.3 9.1-.3 11 .5 16.6 7.4 2.3 2.9 3 4.9 3.4 10.1 1.3 15.2-8 42.2-22.8 66.3-2.2 3.6-3.8 6.9-3.5 7.1.8.8 11.1-5.2 18.8-10.9 8.5-6.2 21.6-20.1 26.4-27.8 2-3.3 4.1-5.7 4.5-5.4.5.3.9 2.9.9 5.7 0 7-3.8 13.5-14.1 24.2-11.8 12.3-27.1 22.2-41.5 26.9-4.4 1.4-6.3 3-13.7 11.6-9.7 11.1-19.2 19.5-25.3 22.2-3.8 1.6-4.6 1.6-8.8.4-10.3-3.1-21.3-14.8-23.6-24.9-.5-2.6-.8-8-.5-12 .7-8.3 1.1-8.6-7.9 5.9-13 21-22.5 31.4-28.5 31.4-6.2 0-17.4-8.9-21.3-16.8-1.7-3.6-2-5.5-1.5-11 1.2-13.3 12.2-44.2 27.7-77.5 4.4-9.3 7.3-16.6 6.7-16.3-8.3 3.6-14.1 5.7-18.3 6.6l-5.2 1.1-11.1 22.4c-11.8 23.9-16.5 30.5-21.4 30.5-1.5 0-2.7-.2-2.7-.5s4.2-8.7 9.4-18.7c5.2-10.1 11.1-22 13.1-26.5l3.7-8.2-3.6-3.4c-2-1.9-4.1-4.8-4.7-6.6l-1.1-3.1-3.5 6.8c-9.6 18-28.1 38.8-44.6 49.6-16.2 10.7-35.8 17.8-54.9 19.8l-10.7 1.2-7 17.5c-3.8 9.7-7.4 19.4-8 21.6-1.2 4.6-1.3 11.1-.2 14 1.9 4.8-2.2 5.9-9.2 2.4-8.5-4.3-15-12.5-16.2-20.6-.8-5.1 3-17.2 19.3-59.8 16.4-43.1 21.2-57.8 21.9-67.5.5-6.4.3-7.9-1.2-9.4-1-.9-2.4-1.5-3.1-1.2-.8.3-1.4-.1-1.4-.9 0-2.3 4.7-4.8 9-4.8 10.3 0 28 14.3 28 22.6 0 4.9-10.6 34.2-20.9 57.9-1.1 2.7-1.7 4.8-1.2 4.8 3.7 0 25.9-12.4 36.8-20.6 29.9-22.4 46.5-49.9 46.7-77.4.1-8.9-.2-10.1-3.2-16.2-8.4-17-28.5-26.3-59.3-27.5-23.2-.9-37.7 2.1-57.4 11.8-24 11.8-47 35-60.1 60.6-10.5 20.5-11 32.2-2.2 49.8 3.6 7.1 9.4 14.5 11.4 14.5.8 0 1.4.7 1.4 1.5 0 3.1-4.9 1.5-10.9-3.5-17.1-14.2-33.5-43.4-34.8-62-1.9-26.1 22-58.6 58.3-79.3 13.4-7.7 33.5-14.9 49.4-17.8 7-1.2 26.6-2.6 31.5-2.2 1.7.1 5.7.4 9 .7z"/><path d="M518.5 331c2.8 5.5 3.5 8.9 2.3 11.6-1.4 2.9-1.9 3-3.6.4-1.6-2.6-6.2-2.6-9.6.1-3.3 2.6-10.8 13.6-16.9 24.9-7.3 13.7-15.9 34.1-15.3 36.6.3 1.2 2.7 4.1 5.2 6.3 4.2 3.7 5.2 4.1 9.9 4.1h5.3l5.3-8.3c7.7-11.8 19-34.7 22.9-46.3 2.2-6.7 3.5-12.5 3.8-18 .4-7.4.2-8.2-1.9-10.7-1.3-1.5-3.9-3-5.8-3.3l-3.3-.7 1.7 3.3zM466.7 425.7c-2.2 8-2.9 14.5-1.8 16.2 2 3.1 11.3-2.6 18.4-11.2l3.8-4.6-3.8-.6c-5.3-.9-10.4-2.6-12.9-4.2-2-1.3-2.2-1.1-3.7 4.4z"/></svg>