<svg width="1425px" height="1058px" viewBox="0 0 1425 1058" version="1.1" xmlns="http://www.w3.org/2000/svg" xmlns:xlink="http://www.w3.org/1999/xlink">
    <g id="Page-1" stroke="none" stroke-width="1" fill="none" fill-rule="evenodd">
        <g id="Artboard" transform="translate(-682.000000, -263.000000)">
            <g id="video" transform="translate(682.000000, 263.000000)">
                <rect id="Rectangle" fill="#FFB2B8" x="0" y="0" width="1425" height="1058" rx="100"></rect>
                <rect id="Rectangle-2" fill="#FFFFFF" x="101" y="101" width="181" height="101" rx="31"></rect>
                <rect id="Rectangle-2" fill="#FFFFFF" x="101" y="252" width="181" height="101" rx="31"></rect>
                <rect id="Rectangle-2" fill="#FFFFFF" x="101" y="403" width="181" height="101" rx="31"></rect>
                <rect id="Rectangle-2" fill="#FFFFFF" x="101" y="554" width="181" height="101" rx="31"></rect>
                <rect id="Rectangle-2" fill="#FFFFFF" x="101" y="705" width="181" height="101" rx="31"></rect>
                <rect id="Rectangle-2" fill="#FFFFFF" x="101" y="856" width="181" height="101" rx="31"></rect>
                <rect id="Rectangle-2" fill="#FFFFFF" x="1143" y="101" width="181" height="101" rx="31"></rect>
                <rect id="Rectangle-2" fill="#FFFFFF" x="1143" y="252" width="181" height="101" rx="31"></rect>
                <rect id="Rectangle-2" fill="#FFFFFF" x="1143" y="403" width="181" height="101" rx="31"></rect>
                <rect id="Rectangle-2" fill="#FFFFFF" x="1143" y="554" width="181" height="101" rx="31"></rect>
                <rect id="Rectangle-2" fill="#FFFFFF" x="1143" y="705" width="181" height="101" rx="31"></rect>
                <rect id="Rectangle-2" fill="#FFFFFF" x="1143" y="856" width="181" height="101" rx="31"></rect>
                <path d="M383,527.5 L1042,527.5" id="Line" stroke="#FFFFFF" stroke-width="25" stroke-linecap="round" stroke-linejoin="round"></path>
                <path d="M383,831.5 L1042,831.5" id="Line" stroke="#FFFFFF" stroke-width="25" stroke-linecap="round" stroke-linejoin="round"></path>
                <path d="M383,223.5 L1042,223.5" id="Line" stroke="#FFFFFF" stroke-width="25" stroke-linecap="round" stroke-linejoin="round"></path>
            </g>
        </g>
    </g>
</svg>