<?xml version="1.0" encoding="UTF-8"?>
<svg width="573px" height="133px" viewBox="0 0 573 133" version="1.1" xmlns="http://www.w3.org/2000/svg" xmlns:xlink="http://www.w3.org/1999/xlink">
    <!-- Generator: Sketch 47.1 (45422) - http://www.bohemiancoding.com/sketch -->
    <title>Slice</title>
    <desc>Created with Sketch.</desc>
    <defs></defs>
    <g id="Page-1" stroke="none" stroke-width="1" fill="none" fill-rule="evenodd">
        <g id="лого" fill-rule="nonzero">
            <g id="Group" transform="translate(244.000000, 80.000000)" fill="#C9C7C7">
                <path d="M11.2,3 C10.4,3 9.9,3.2 9.6,3.5 C9.3,3.9 9.2,4.3 9.2,4.9 L9.2,21.7 L31.6,4.9 C32,4.6 32.3,4.4 32.5,4.2 C32.7,4 32.8,3.8 32.8,3.6 C32.8,3.4 32.7,3.3 32.5,3.1 C32.3,2.9 32,2.9 31.6,2.9 L31.6,1.9 L44,1.9 L44,2.9 C43.2,2.9 42.5,3 42.1,3.3 C41.7,3.6 40.9,4.1 39.9,4.9 L24,16.9 L43.9,42.5 C44.4,43.2 44.8,43.7 45.2,44 C45.6,44.3 46,44.5 46.6,44.5 L46.6,45.5 L35.2,45.5 L35.2,44.5 C35.9,44.5 36.3,44.3 36.3,43.8 C36.3,43.3 35.9,42.6 35.2,41.7 L19,20.7 L9.3,28 L9.3,42.5 C9.3,43.1 9.4,43.6 9.7,43.9 C10,44.3 10.5,44.4 11.3,44.4 L11.3,45.4 L0.4,45.4 L0.4,44.4 C1.2,44.4 1.7,44.2 2,43.9 C2.3,43.5 2.4,43.1 2.4,42.5 L2.4,5 C2.4,4.4 2.3,3.9 2,3.6 C1.7,3.2 1.2,3.1 0.4,3.1 L0.4,2.1 L11.3,2.1 L11.3,3 L11.2,3 Z" id="Shape"></path>
                <path d="M57.3,5 C57.3,4.4 57.2,3.9 56.9,3.6 C56.6,3.2 56.1,3.1 55.3,3.1 L55.3,2.1 L83,2.1 C88.4,2.1 92.3,3.1 94.7,5.2 C97.1,7.2 98.2,10.1 98.2,13.8 C98.2,17.9 97,21.1 94.7,23.4 C92.4,25.7 88.5,26.8 83.2,26.8 L64.2,26.8 L64.2,42.6 C64.2,43.2 64.3,43.7 64.6,44 C64.9,44.4 65.4,44.5 66.2,44.5 L66.2,45.5 L55.3,45.5 L55.3,44.5 C56.1,44.5 56.6,44.3 56.9,44 C57.2,43.6 57.3,43.2 57.3,42.6 L57.3,5 Z M82.9,21 C86.3,21 88.6,20.4 90,19.1 C91.4,17.8 92.1,16.1 92.1,13.9 C92.1,11.8 91.5,10.2 90.2,9.2 C89,8.2 86.5,7.7 82.9,7.7 L64.3,7.7 L64.3,21 L82.9,21 Z" id="Shape"></path>
                <path d="M152.2,3 C151.4,3.1 150.8,3.3 150.3,3.8 C149.8,4.3 149.4,4.8 149.1,5.3 L127.8,40.3 C127.5,40.7 127.2,41.3 126.9,41.9 C126.6,42.5 126.4,43.1 126.4,43.5 C126.4,44.3 127,44.7 128.2,44.7 L128.2,45.7 L115.8,45.7 L115.8,44.7 C116.5,44.7 117.1,44.5 117.7,44.2 C118.2,43.9 118.8,43.3 119.3,42.4 L126.2,31 L108.3,5.4 C107.7,4.6 107,4 106.4,3.5 C105.7,3.1 105.1,2.9 104.5,2.9 L104.5,1.9 L118,1.9 L118,2.9 C116.6,2.9 115.9,3.3 115.9,4.2 C115.9,4.9 116.3,5.8 117.1,7 L129.7,25 L140.4,7.4 C140.8,6.6 141.1,6 141.3,5.5 C141.5,5 141.5,4.7 141.5,4.4 C141.5,3.9 141.3,3.5 140.9,3.2 C140.5,3 140,2.9 139.5,2.9 L139.5,1.9 L151.9,1.9 L151.9,3 L152.2,3 Z" id="Shape"></path>
                <path d="M174,44.4 C174.8,44.4 175.3,44.2 175.6,43.9 C175.9,43.5 176,43.1 176,42.5 L176,7.5 L162.1,7.5 C161.1,7.5 160.3,7.7 159.9,8 C159.5,8.3 159.2,8.9 159.2,9.7 L158.2,9.7 L158.2,0 L159.2,0 C159.2,1.4 160.2,2.1 162.1,2.1 L196.7,2.1 C198.6,2.1 199.6,1.4 199.6,0 L200.6,0 L200.6,9.7 L199.6,9.7 C199.6,8.9 199.4,8.3 198.9,8 C198.5,7.7 197.7,7.5 196.7,7.5 L182.8,7.5 L182.8,42.5 C182.8,43.1 182.9,43.6 183.2,43.9 C183.5,44.3 184,44.4 184.8,44.4 L184.8,45.4 L174,45.4 L174,44.4 Z" id="Shape"></path>
                <path d="M255.4,32.5 C255.4,34.3 255.1,36 254.5,37.6 C253.9,39.2 253,40.5 251.7,41.7 C250.4,42.9 248.7,43.8 246.7,44.4 C244.7,45.1 242.2,45.4 239.3,45.4 L212.4,45.4 L212.4,44.4 C213.2,44.4 213.7,44.2 214,43.9 C214.3,43.5 214.4,43.1 214.4,42.5 L214.4,5 C214.4,4.4 214.3,3.9 214,3.6 C213.7,3.2 213.2,3.1 212.4,3.1 L212.4,2.1 L223.3,2.1 L223.3,3.1 C222.5,3.1 222,3.3 221.7,3.6 C221.4,4 221.3,4.4 221.3,5 L221.3,18.4 L239.5,18.4 C242.4,18.4 244.8,18.8 246.8,19.5 C248.8,20.2 250.4,21.2 251.7,22.4 C253,23.6 253.9,25.1 254.5,26.9 C255.1,28.6 255.4,30.5 255.4,32.5 Z M248.8,32.3 C248.8,31.2 248.6,30.2 248.3,29.2 C248,28.2 247.5,27.3 246.7,26.6 C246,25.8 245,25.2 243.7,24.7 C242.5,24.2 240.9,24 239,24 L221.2,24 L221.2,39.8 L239,39.8 C241,39.8 242.7,39.6 243.9,39.2 C245.1,38.8 246.1,38.3 246.8,37.6 C247.5,36.9 248,36.2 248.2,35.3 C248.6,34.4 248.8,33.4 248.8,32.3 Z M262,44.4 C262.8,44.4 263.3,44.2 263.6,43.9 C263.9,43.5 264,43.1 264,42.5 L264,5 C264,4.4 263.9,3.9 263.6,3.6 C263.3,3.2 262.8,3.1 262,3.1 L262,2.1 L272.9,2.1 L272.9,3.1 C272.1,3.1 271.6,3.3 271.3,3.6 C271,4 270.9,4.4 270.9,5 L270.9,42.4 C270.9,43 271,43.5 271.3,43.8 C271.6,44.2 272.1,44.3 272.9,44.3 L272.9,45.3 L262,45.3 L262,44.4 Z" id="Shape"></path>
                <path d="M283.7,44.4 C284.7,44.4 285.4,44.2 285.9,43.8 C286.4,43.4 287,42.7 287.8,41.6 L302.5,22.6 L289.6,5.8 C288.8,4.8 288.2,4 287.6,3.6 C287,3.2 286.3,3 285.6,3 L285.6,2 L298,2 L298,3 C297.2,3 296.8,3.3 296.8,3.9 C296.8,4.4 297.1,5 297.8,5.8 L306.5,17.5 L315.7,5.8 C316.5,4.8 316.9,4.2 316.9,3.9 C316.9,3.3 316.4,3 315.4,3 L315.4,2 L327,2 L327,3 C326.2,3 325.6,3.2 325.2,3.5 C324.8,3.8 324.2,4.6 323.2,5.8 L310.3,22.3 L325.1,41.6 C326,42.8 326.6,43.5 327.1,43.9 C327.5,44.3 328.2,44.4 329,44.4 L329,45.4 L316.6,45.4 L316.6,44.4 C317.3,44.4 317.7,44.4 318,44.3 C318.2,44.2 318.4,44 318.4,43.8 C318.4,43.4 318.1,42.9 317.5,42.2 L306.5,27.7 L295.1,42.2 C294.5,42.8 294.2,43.4 294.2,43.9 C294.2,44.3 294.6,44.5 295.5,44.5 L295.5,45.5 L283.9,45.5 L283.9,44.4 L283.7,44.4 Z" id="Shape"></path>
            </g>
            <g id="Group" fill="#F9CED7">
                <path d="M129.7,45.7 C129.7,47 129.5,48.9 128.9,51.2 C128.3,53.5 127.4,56.1 126.2,58.9 C125,61.7 123.5,64.7 121.6,67.9 C119.7,71.1 117.5,74.2 114.9,77.3 C112.3,80.4 109.4,83.4 106,86.3 C102.7,89.2 98.9,91.8 94.8,94 C90.7,96.2 86.2,98.1 81.3,99.5 C76.4,100.9 71.1,101.7 65.3,101.9 C64.1,104.8 63,107.5 61.9,110.2 C60.9,112.8 59.9,115.2 59.1,117.3 C58.3,119.4 57.7,121.2 57.2,122.8 C56.8,124.3 56.5,125.5 56.5,126.2 C56.5,127.7 56.7,128.8 57.1,129.5 C57.5,130.2 57.7,130.7 57.7,131 C57.7,131.3 57.6,131.6 57.3,132 C57,132.3 56.6,132.5 56,132.5 C55.2,132.5 54,132.2 52.6,131.5 C51.2,130.9 49.8,129.9 48.5,128.8 C47.2,127.6 46,126.2 45,124.6 C44,123 43.5,121.2 43.5,119.3 C43.5,118.3 43.8,116.7 44.5,114.5 C45.1,112.4 46,109.8 47,106.9 C48,104 49.3,100.8 50.6,97.4 C52,94 53.4,90.4 54.7,86.8 C56.1,83.2 57.5,79.6 58.8,76 C60.2,72.4 61.4,69.1 62.4,66 C63.4,62.9 64.3,60.1 64.9,57.6 C65.5,55.1 65.9,53.1 65.9,51.6 C65.9,50 65.6,48.8 65.1,48.3 C64.6,47.7 64.1,47.4 63.6,47.4 C63.2,47.4 62.9,47.5 62.7,47.7 C62.6,47.8 62.5,47.8 62.4,47.8 C62.3,47.8 62.3,47.7 62.3,47.6 C62.3,47.3 62.4,47 62.6,46.6 C62.7,46.2 63,45.9 63.4,45.5 C63.8,45.2 64.3,44.9 64.9,44.6 C65.5,44.4 66.3,44.3 67.3,44.3 C68.6,44.3 70.2,44.7 71.9,45.6 C73.6,46.5 75.2,47.5 76.7,48.7 C78.2,49.9 79.5,51.2 80.5,52.6 C81.5,54 82.1,55.1 82.1,56.1 C82.1,57.1 81.8,58.8 81.1,61 C80.4,63.2 79.5,65.9 78.4,68.9 C77.3,71.9 76,75.3 74.5,78.8 C73,82.4 71.5,86.1 69.9,89.8 C72.1,89 74.8,87.8 77.9,86.2 C81,84.6 84.2,82.7 87.5,80.4 C90.8,78.1 94.1,75.5 97.3,72.4 C100.5,69.4 103.4,66.1 106,62.4 C108.6,58.8 110.6,54.8 112.2,50.6 C113.8,46.3 114.6,41.8 114.6,37 C114.6,34.3 114.1,31.9 113.1,29.7 C112.1,27.5 110.8,25.6 109.1,23.9 C107.4,22.2 105.4,20.8 103.1,19.6 C100.8,18.4 98.3,17.4 95.6,16.6 C92.9,15.8 90,15.3 87,14.9 C84,14.6 81,14.4 78,14.4 C71.3,14.4 65.1,15.4 59.4,17.4 C53.7,19.4 48.5,22 43.8,25.1 C39.1,28.3 35,31.8 31.4,35.8 C27.8,39.8 24.8,43.7 22.3,47.7 C19.9,51.6 18,55.4 16.7,58.9 C15.4,62.4 14.8,65.3 14.8,67.6 C14.8,69.3 15.2,71.3 15.9,73.6 C16.6,75.8 17.6,78 18.6,80 C19.7,82 20.8,83.7 22,85.1 C23.2,86.5 24.3,87.2 25.3,87.2 C25.3,87.9 25.1,88.4 24.6,88.5 C24.2,88.6 23.7,88.7 23.3,88.7 C22.8,88.7 21.8,88.2 20.5,87.1 C19.2,86.1 17.6,84.6 15.9,82.8 C14.2,81 12.5,78.9 10.7,76.4 C8.9,74 7.3,71.3 5.8,68.6 C4.3,65.8 3.1,62.9 2.1,60 C1.1,57 0.6,54.1 0.6,51.1 C0.6,48.2 1.3,44.9 2.8,41.2 C4.3,37.5 6.5,33.8 9.3,30.1 C12.1,26.4 15.7,22.7 19.8,19.2 C24,15.7 28.8,12.5 34.2,9.7 C39.6,6.9 45.5,4.7 52.1,3 C58.6,1.3 65.7,0.5 73.3,0.5 C77.8,0.5 82.3,1.1 86.8,2.4 C91.3,3.7 95.6,5.4 99.8,7.6 C104,9.8 107.8,12.4 111.4,15.3 C115,18.2 118.1,21.4 120.8,24.7 C123.5,28 125.6,31.5 127.1,35.1 C128.9,38.8 129.7,42.3 129.7,45.7 Z" id="Shape"></path>
                <path d="M169.6,79.6 C169.7,79.8 169.8,80 170,80.2 C170.1,80.4 170.2,80.7 170.3,81 C170.4,81.3 170.4,81.7 170.4,82.2 C170.4,82.8 170.3,83.6 170.2,84.4 C170.1,85.2 169.8,86.5 169.3,88.1 C168.5,90 167.3,92.3 165.9,95.1 C164.5,97.8 163,100.7 161.3,103.7 C159.6,106.7 157.9,109.7 156,112.7 C154.1,115.7 152.3,118.4 150.5,120.8 C148.7,123.2 147.1,125.1 145.5,126.6 C143.9,128.1 142.6,128.8 141.4,128.8 C140.6,128.8 139.4,128.5 138,127.8 C136.6,127.2 135.2,126.2 133.9,125.1 C132.6,123.9 131.4,122.5 130.4,120.9 C129.4,119.3 128.9,117.5 128.9,115.6 C128.9,114 129.2,112 129.7,109.7 C130.2,107.4 130.9,104.9 131.8,102.2 C132.7,99.5 133.7,96.8 134.8,93.9 C135.9,91 137.1,88.2 138.2,85.4 C139.4,82.6 140.5,80 141.7,77.4 C142.8,74.9 143.9,72.6 144.8,70.7 C145.7,68.7 146.5,67.1 147.2,65.9 C147.8,64.7 148.2,63.9 148.3,63.7 C148.1,63.8 147.6,64 146.8,64.5 C146,65 145,65.5 143.7,66.1 C142.5,66.6 141.1,67.2 139.6,67.6 C138.1,68.1 136.5,68.3 134.8,68.3 C134.1,69.9 133.2,71.8 132.2,74.1 C131.2,76.4 130.1,78.7 128.9,81.1 C127.8,83.5 126.6,85.9 125.3,88.1 C124.1,90.4 122.9,92.3 121.8,93.8 C121.1,94.8 120.4,95.5 119.6,95.9 C118.9,96.3 118.2,96.5 117.5,96.5 C117,96.5 116.6,96.5 116.5,96.4 C116.4,96.4 116.2,96.3 116.1,96.3 C117.5,93.5 119,90.7 120.4,88 C121.8,85.2 123.2,82.6 124.4,80.1 C125.6,77.6 126.8,75.3 127.8,73.1 C128.8,71 129.7,69.1 130.4,67.6 C129.8,67.3 129.1,66.9 128.5,66.5 C127.9,66.1 127.4,65.6 126.9,65 C126.4,64.4 126,63.7 125.7,62.9 C125.4,62.1 125.3,61.1 125.3,60 C125.3,58.9 125.5,57.5 125.9,56.1 C126.3,54.6 126.8,53.2 127.5,51.9 C128.2,50.6 129,49.5 130,48.5 C131,47.6 132.1,47.1 133.4,47.1 C135.4,47.1 137,47.8 138.1,49.2 C139.2,50.6 139.8,52.3 139.8,54.4 C139.8,56.1 139.5,57.5 139,58.6 C138.5,59.6 138,60.6 137.7,61.4 C137.7,61.4 137.8,61.4 137.8,61.4 C137.8,61.4 137.8,61.4 137.9,61.4 C138.9,61.4 140.1,61 141.4,60.2 C142.7,59.4 143.9,58.5 145.2,57.4 C146.5,56.3 147.7,55.1 148.8,53.7 C149.9,52.4 150.9,51.1 151.8,50 C152,49.7 152.4,49.3 152.8,49 C153.2,48.7 153.7,48.6 154.2,48.6 C154.9,48.6 156,49 157.4,49.8 C158.8,50.6 160.1,51.6 161.4,52.8 C162.7,54 163.9,55.4 164.9,56.8 C165.9,58.3 166.4,59.7 166.4,60.9 C166.4,61.2 166.3,61.8 166,62.6 C165.7,63.4 165.3,64.5 164.8,65.7 C164.3,66.9 163.7,68.3 163,69.8 C162.3,71.3 161.6,72.9 160.8,74.6 C159.6,77.2 158.3,79.9 157,82.9 C155.7,85.8 154.4,88.8 153,91.7 C151.7,94.7 150.4,97.6 149.2,100.4 C148,103.2 146.9,105.9 146,108.4 C145.1,110.9 144.3,113.1 143.8,115 C143.2,116.9 142.9,118.5 142.9,119.6 C142.9,120.3 143.1,120.6 143.6,120.6 C144,120.6 144.8,120 145.7,118.8 C146.7,117.6 147.8,116.1 149.1,114.2 C150.4,112.3 151.8,110.1 153.3,107.6 C154.8,105.1 156.3,102.6 157.8,100.1 C161.6,94 165.4,87.2 169.6,79.6 Z" id="Shape"></path>
                <path d="M215.1,65.7 C215.1,68.6 214.7,71.6 213.9,74.9 C213.1,78.1 212.1,81.4 210.7,84.7 C209.4,88 207.8,91.3 206,94.6 C204.2,97.9 202.3,101.1 200.4,104.1 C203.3,102.9 206.1,101.4 208.8,99.5 C211.5,97.6 214,95.6 216.3,93.4 C218.6,91.2 220.7,89 222.5,86.6 C224.3,84.2 225.8,81.9 226.9,79.6 C227.3,80.1 227.7,80.8 227.9,81.7 C228,82.4 228,83.3 227.9,84.4 C227.8,85.5 227.3,86.9 226.5,88.5 C225.8,89.8 224.5,91.6 222.7,93.8 C220.9,96 218.6,98.2 215.9,100.5 C213.2,102.8 210.1,104.9 206.6,106.9 C203.1,108.9 199.4,110.4 195.4,111.3 C193.5,113.9 191.5,116.3 189.5,118.4 C187.5,120.5 185.7,122.4 183.9,124 C182.2,125.6 180.5,126.8 179.1,127.7 C177.6,128.6 176.4,129 175.5,129 C174.3,129 172.8,128.6 171,127.7 C169.3,126.9 167.6,125.7 166,124.2 C164.4,122.7 163,121 161.9,119 C160.8,117 160.2,114.9 160.2,112.6 C160.2,108.4 160.8,104.1 161.9,99.6 C163,95.1 164.5,90.8 166.3,86.5 C168.1,82.2 170.2,78.2 172.4,74.4 C174.7,70.6 177,67.2 179.3,64.4 C181.6,61.5 183.8,59.3 186,57.6 C188.1,55.9 189.9,55.1 191.5,55.1 C192.6,55.1 193.7,55.2 194.7,55.5 C195.7,55.8 196.6,56.1 197.5,56.5 C198.7,56.1 200,55.8 201.3,55.5 C202.6,55.3 203.9,55.1 205.3,55.1 C206.4,55.1 207.5,55.4 208.7,55.8 C209.9,56.3 210.9,57 211.9,57.9 C212.9,58.8 213.7,59.9 214.3,61.3 C214.8,62.6 215.1,64.1 215.1,65.7 Z M186.7,112.2 C185.1,112.2 183.4,111.9 181.7,111.5 C179.9,111.1 178.2,110.3 176.7,109.1 C176.2,110.8 175.7,112.5 175.3,114 C174.9,115.5 174.7,116.8 174.6,117.8 C174.5,118.9 174.5,119.7 174.7,120.3 C174.9,120.9 175.2,121.2 175.7,121.2 C177,121.2 178.7,120.4 180.6,118.7 C182.5,117 184.5,114.9 186.7,112.2 Z M188.2,106.6 C188.6,106.6 189.1,106.6 189.6,106.6 C190.1,106.6 190.6,106.5 191.1,106.5 C193.3,103.3 195.4,99.9 197.5,96.2 C199.6,92.5 201.4,88.9 203,85.3 C204.6,81.7 205.9,78.2 206.9,74.9 C207.9,71.6 208.4,68.7 208.4,66.3 C208.4,64.8 208,63.5 207.1,62.3 C206.2,61.1 204.8,60.5 202.9,60.5 C202.6,60.5 202.4,60.5 202.2,60.6 C203.2,61.9 203.9,63.1 204.3,64.3 C204.7,65.5 204.9,66.3 204.9,66.7 C204.9,67.2 204.8,67.6 204.6,68 C204.4,68.4 204.2,68.7 204,69 C203.7,69.3 203.5,69.6 203.1,69.8 C203,69.3 202.9,68.9 202.7,68.5 C202.4,68.2 202.1,67.8 201.7,67.6 C201.3,67.3 200.7,67.2 199.8,67.2 C198.7,67.2 197.3,68.2 195.7,70.2 C194.1,72.2 192.3,74.8 190.5,78 C188.7,81.2 186.8,84.7 185,88.7 C183.2,92.6 181.5,96.5 180,100.2 C180.8,102.1 182,103.7 183.5,104.9 C184.8,106 186.4,106.6 188.2,106.6 Z" id="Shape"></path>
            </g>
        </g>
    </g>
</svg>