<svg width="1537px" height="1537px" viewBox="0 0 1537 1537" version="1.1" xmlns="http://www.w3.org/2000/svg" xmlns:xlink="http://www.w3.org/1999/xlink">
    <g id="Page-1" stroke="none" stroke-width="1" fill="none" fill-rule="evenodd">
        <path d="M1536.89831,768.6441 C1536.89831,664.6441 1516.56498,565.310767 1475.89831,470.6441 C1435.23164,375.977433 1380.56498,294.310767 1311.89831,225.6441 C1243.23164,156.977433 1161.56498,102.310767 1066.89831,61.6441 C972.231643,20.9774333 872.89831,0.6441 768.89831,0.6441 C649.564977,0.6441 537.39831,25.9774333 432.39831,76.6441 C327.39831,127.310767 238.731643,198.310767 166.39831,289.6441 C94.0649767,380.977433 44.89831,484.977433 18.89831,601.6441 C16.89831,610.977433 19.2316433,619.977433 25.89831,628.6441 C31.89831,636.6441 40.2316433,640.6441 50.89831,640.6441 L249.89831,640.6441 C265.231643,640.6441 275.231643,632.977433 279.89831,617.6441 C313.231643,509.6441 374.89831,422.477433 464.89831,356.1441 C554.89831,289.810767 656.231643,256.6441 768.89831,256.6441 C838.231643,256.6441 904.39831,270.1441 967.39831,297.1441 C1030.39831,324.1441 1084.89831,360.6441 1130.89831,406.6441 C1176.89831,452.6441 1213.39831,507.1441 1240.39831,570.1441 C1267.39831,633.1441 1280.89831,699.310767 1280.89831,768.6441 C1280.89831,837.977433 1267.39831,904.1441 1240.39831,967.1441 C1213.39831,1030.1441 1176.89831,1084.6441 1130.89831,1130.6441 C1084.89831,1176.6441 1030.39831,1213.1441 967.39831,1240.1441 C904.39831,1267.1441 838.231643,1280.6441 768.89831,1280.6441 C703.564977,1280.6441 640.89831,1268.81077 580.89831,1245.1441 C520.89831,1221.47743 467.564977,1187.6441 420.89831,1143.6441 L557.89831,1005.6441 C578.564977,985.6441 583.231643,962.6441 571.89831,936.6441 C560.564977,909.977433 540.89831,896.6441 512.89831,896.6441 L64.89831,896.6441 C47.5649767,896.6441 32.5649767,902.977433 19.89831,915.6441 C7.23164333,928.310767 0.89831,943.310767 0.89831,960.6441 L0.89831,1408.6441 C0.89831,1436.6441 14.2316433,1456.31077 40.89831,1467.6441 C66.89831,1478.97743 89.89831,1474.31077 109.89831,1453.6441 L239.89831,1324.6441 C311.231643,1391.97743 392.731643,1444.1441 484.39831,1481.1441 C576.064977,1518.1441 670.89831,1536.6441 768.89831,1536.6441 C872.89831,1536.6441 972.231643,1516.31077 1066.89831,1475.6441 C1161.56498,1434.97743 1243.23164,1380.31077 1311.89831,1311.6441 C1380.56498,1242.97743 1435.23164,1161.31077 1475.89831,1066.6441 C1516.56498,971.977433 1536.89831,872.6441 1536.89831,768.6441 Z" id="path3451" fill="#FFFFFF" fill-rule="nonzero" transform="translate(768.898310, 768.644100) scale(-1, 1) rotate(-180.000000) translate(-768.898310, -768.644100) "></path>
    </g>
</svg>