<svg width="51px" height="150px" viewBox="0 0 51 150" version="1.1" xmlns="http://www.w3.org/2000/svg" xmlns:xlink="http://www.w3.org/1999/xlink">
    <g id="Page-1" stroke="none" stroke-width="1" fill="none" fill-rule="evenodd">
        <g id="icon1" fill-rule="nonzero" fill="#FFB2B8">
            <path d="M29.8,149.1 C27.7,145.7 28.1,142.4 28.8,139.1 C30,133.4 30.6,127.7 30.6,122 C30.7,114.9 26.3,108.7 19.5,106.2 C14.2,104.3 8.9,102.4 4.4,98.9 C0.2,95.6 -0.4,92.6 2.4,88 C4.5,84.5 7.4,81.7 10.5,79 C20.7,70.3 22.9,58.4 16.3,46.6 C12.9,40.4 9,34.5 5.9,28.2 C3,22.2 3.9,19.5 9.8,16.5 C12.1,15.3 14.6,14.5 16.9,13.3 C21.4,11 24.5,7.4 26,2.5 C26.2,1.7 26.4,0.5 27.6,0.6 C28.4,0.7 28.7,1.6 28.9,2.4 C30.7,8.7 35.1,12.3 41,14.7 C51.8,19.1 52.4,21.5 47,31.7 C43.6,38.2 39.6,44.3 36.7,51 C34.9,55.2 33.8,59.7 35.7,63.9 C41.4,76.4 39.8,89.5 39.5,102.5 C39.2,116.4 36.1,129.9 32.5,143.3 C32.1,145.3 31.6,147.4 29.8,149.1 Z M27.7,9.9 C23.7,13.7 19.2,16.7 14.7,19.9 C11.1,22.5 10.7,24.4 13,28.2 C14.8,31.1 16.9,33.7 18.8,36.6 C23.7,44.3 31.2,44.4 36.2,36.8 C37.7,34.5 39.3,32.3 40.8,30 C44.5,24.2 44.2,22.4 38.5,18.5 C34.8,15.8 30.8,13.5 27.7,9.9 Z M29.8,104.2 C30,96.6 28.3,89.9 27.9,83.1 C27.8,81.3 26.8,81.6 25.8,82.2 C20.6,85.3 15.5,88.5 10.1,91.8 C16.8,95.9 23.1,99.9 29.8,104.2 Z" id="Shape"></path>
            <path d="M33.9,29.9 C33.9,34.1 31.3,37.4 27.7,37.7 C24.5,38 21.5,34.6 21.1,30.3 C20.9,28.1 20.9,25.9 21.9,23.8 C22.9,21.5 24.5,19.8 27.1,19.6 C29.8,19.5 31.4,21.2 32.5,23.4 C33.6,25.5 33.8,27.7 33.9,29.9 Z" id="Shape"></path>
        </g>
    </g>
</svg>