<svg width="76px" height="146px" viewBox="0 0 76 146" version="1.1" xmlns="http://www.w3.org/2000/svg" xmlns:xlink="http://www.w3.org/1999/xlink">
    <g id="Page-1" stroke="none" stroke-width="1" fill="none" fill-rule="evenodd">
        <g id="icon3" fill-rule="nonzero" fill="#FFB2B8">
            <path d="M59.9,14.1 C57.5,25.1 51.1,33.3 44.4,41.3 C40.4,46 36.1,50.6 32.2,55.4 C27.4,61.3 27.1,67.9 30.2,74.5 C39.4,94.2 51.3,112.1 65.9,128.2 C69,131.7 72,135.3 75,138.9 C75.5,139.5 76.4,140 75.3,140.9 C74.6,141.4 74.2,141.1 73.5,140.6 C55.9,128.2 38.8,115.1 25.5,98 C15.8,85.6 13.4,70.6 12.9,55.3 C12.4,40.2 13.7,25.3 16.2,10.4 C16.8,7.1 17.6,3.8 19.6,0.7 C21,2.2 20.7,4 20.7,5.5 C20.5,13.6 20.1,21.7 19.9,29.7 C19.8,33.7 20.2,37.6 20.9,41.5 C21.8,46.6 24.3,47.9 29.1,45.9 C33.4,44.1 36.8,41.1 39.8,37.7 C46.5,30.1 53,22.3 59.9,14.1 Z" id="Shape"></path>
            <path d="M13.7,80.8 C16.1,86.1 18.4,91.1 20.6,96.1 C21.3,97.8 21.4,99.9 20,101.3 C10.3,110.7 10,122.9 9.9,135.2 C9.9,138.2 9.4,141.1 7.7,143.7 C7.2,144.4 6.9,145.4 5.9,145.1 C5.1,144.9 5.2,144 5.1,143.3 C3.7,134.8 2.3,126.3 0.8,117.8 C-1.14463994e-13,112.9 2.2,108.6 3.9,104.4 C7,96.6 10.3,88.9 13.7,80.8 Z" id="Shape"></path>
            <path d="M35,33.2 C35,37.8 31.9,41.7 28.4,41.6 C25.3,41.5 23.3,38.8 23.3,34.5 C23.3,29.6 26,25.8 29.6,25.8 C32.6,25.8 34.9,28.9 35,33.2 Z" id="Shape"></path>
        </g>
    </g>
</svg>