<svg width="100px" height="95px" viewBox="0 0 100 95" version="1.1" xmlns="http://www.w3.org/2000/svg" xmlns:xlink="http://www.w3.org/1999/xlink">
    <g id="Page-1" stroke="none" stroke-width="1" fill="none" fill-rule="evenodd">
        <g id="icon2" fill-rule="nonzero" fill="#FFB2B8">
            <path d="M1.5,81 C0.2,78.4 1,76.2 2.6,74 C5.2,70.6 8.8,69 12.7,67.7 C16.5,66.5 19.9,64.3 23.2,62.3 C25.7,60.7 26.4,57.6 27.5,54.9 C30,48.8 31.3,42.4 32.2,35.8 C32.7,32.2 34.5,29.6 37.7,27.9 C41.1,26.1 44.6,25 48.5,25 C51,25.1 53.5,25 56,25.2 C63,25.6 67.4,29.4 68.7,35.8 C69.1,37.8 68.7,39.8 69.1,41.8 C70.1,47.3 72.2,52.3 73.9,57.5 C74.8,60.2 76.5,62.2 78.9,63.5 C82.9,65.7 87.1,67.4 91.2,69.1 C94.8,70.6 97.8,72.8 99,76.7 C99.7,78.9 99.1,80.5 96.6,80.8 C95.4,79.8 94.7,78.5 93.9,77.2 C92.8,75.3 91.2,73.9 89.1,73.3 C85.5,72.5 82,71.6 78.4,70.9 C71.9,69.8 68.2,66 66.9,59.6 C65.7,53.8 63.7,48.2 61.2,41.8 C60.1,47 59,51.3 61.1,55.8 C63.3,60.7 65.8,65.4 68.4,70.3 C63.3,71.5 58.6,72.6 53.1,73.8 C58.8,75 63.6,76.1 67.9,78.4 C68.9,79 70.5,79.5 69.9,81.1 C69.4,82.5 67.9,82.4 66.6,82.3 C66.1,82.3 65.6,82.2 65.2,82.2 C57.2,82.2 49.4,83.1 42.5,87.6 C40.8,88.7 39,90.3 37.3,90.8 C33.3,91.9 29.5,93.5 25.3,94.1 C16.2,95.5 10.4,92.6 6.7,84.9 C5.8,82.9 5.9,81.1 7.2,79.2 C9.4,76 13,75.3 16.1,73.7 C19.5,73.1 23,72.4 26.4,71.8 C28.1,71.6 29.8,71.3 31.5,71.3 C33.4,71.3 34.5,70.5 34.9,68.6 C35.6,65.3 37.1,62.3 38.2,59.1 C39.2,57.7 39.7,56.2 39.7,54.5 C39.7,54.3 39.8,54 39.8,53.8 C40.8,49.9 40,46.2 38.8,42.4 C38,45 37.1,47.6 36.3,50.3 C35.9,50.6 35.8,51.1 35.9,51.6 C35.7,52.2 35.5,52.7 35.3,53.3 C34.8,54.4 34.5,55.6 34.5,56.8 C33.9,57.5 34,58.3 34.1,59.1 C33.5,59.6 33.4,60.3 33.5,61 C33.1,61.2 32.9,61.6 33,62.1 C31.3,67.3 27.4,69.7 22.4,70.9 C20.3,71.4 18,71.3 16.1,72.6 C14.4,72.4 12.9,72.7 11.4,73.4 C11.1,73.2 10.9,73.4 10.8,73.6 C8.2,74.3 6.8,76.3 5.6,78.4 C4.6,80.2 3.4,81.1 1.5,81 Z" id="Shape"></path>
            <path d="M58.2,6.7 C59,9.8 59.3,12.9 57.8,16 C55.5,20.9 51.7,22.3 46.1,20.2 C46,20.2 45.9,20.3 45.9,20.4 C45.9,20.3 46,20.3 45.9,20.2 C45.9,20.1 45.8,20 45.7,19.9 C41,15.4 40.3,9.2 43.9,4.1 C47.2,-0.5 53.7,-0.3 56.8,4.4 C57,4.8 57.4,5.1 57.7,5.5 C57.8,6 57.7,6.5 58.3,6.7 L58.2,6.7 Z" id="Shape"></path>
            <path d="M90.3,76.4 C92.9,78.1 94.3,80.7 95.5,83.4 C94.2,90.8 91.5,94.2 84.1,94.8 C79.8,95.2 75.6,94.4 71.5,93 C61.8,89.7 52,89.3 42.1,92 C41.8,91.1 42.4,90.8 42.8,90.6 C48.9,87.4 55.1,84.7 62.1,83.9 C64.8,83.6 67.5,83.7 70.1,84.6 C71.3,85 72.6,85.2 73.5,84 C74.5,82.6 73.6,81.3 72.8,80.3 C69.7,76.4 65.2,75.3 60.6,74.4 C68.4,72.7 78.8,73.4 90.3,76.4 Z" id="Shape"></path>
        </g>
    </g>
</svg>