<svg width="91px" height="67px" viewBox="0 0 91 67" version="1.1" xmlns="http://www.w3.org/2000/svg" xmlns:xlink="http://www.w3.org/1999/xlink">
    <g id="Page-1" stroke="none" stroke-width="1" fill="none" fill-rule="evenodd">
        <g id="icon5" fill-rule="nonzero" fill="#FFB2B8">
            <path d="M89.5,57.3 C87.4,56.5 85.1,55.7 82.8,54.9 C77.6,53.2 72.5,54.1 67.6,55.9 C59.3,58.9 51.2,62.9 42.7,64.9 C31.1,67.5 19.3,66.8 8.5,61 C3.5,58.3 0.1,54.6 0.4,48.1 C0.9,36.9 0.8,25.6 0.6,14.4 C0.5,9 3.2,5.9 7.8,4.1 C19.7,-0.5 31.7,-1 43.8,3.5 C46.7,4.6 49.5,5.4 51.3,8.4 C53.3,11.7 52,15.1 49.2,17.3 C47.1,18.9 44.6,19.9 42.5,21.6 C44.5,20.8 46.5,20 48.4,19 C58.3,14.3 68.5,11.5 79.5,12.9 C82.8,13.3 86,15.1 89.2,16.4 C89.7,16.6 90.1,17.7 90.1,18.3 C90,27.3 89.8,36.3 89.6,45.3 C89.5,49.3 89.5,53.2 89.5,57.3 Z M85.3,49.7 C85.3,48.7 85.3,47.4 85.3,46.2 C85.3,37.8 85.3,29.5 85.2,21.1 C85.2,20.5 84.7,19.5 84.2,19.3 C79.8,17.3 75.2,15.8 70.5,17.2 C63.3,19.2 56,21.3 49,24 C39.2,27.9 29.3,28.9 19.1,27 C14.6,26.1 10.2,24.2 5.7,22.8 C5.8,22.6 5.7,22.7 5.7,22.8 C5.7,32.3 5.6,41.9 5.7,51.4 C5.7,52.6 6.8,53.8 7.5,55.1 C7.8,55 8.1,54.9 8.3,54.9 C8.3,51.5 8.3,48.1 8.3,44.6 C12.9,46.2 12.9,46.2 12.9,50.5 C12.9,52 12.9,53.4 13,54.9 C13.1,58.2 14.2,59.3 18,59.2 C18,52 18,44.8 18,37.6 C19.9,37.6 21.4,37.6 23.2,37.6 C23.2,45.4 23.2,53.1 23.2,61 C25.5,61.2 27.6,61.4 30.1,61.7 C30.1,57.3 30.1,53.2 30.1,49.1 C31.8,49.1 33.1,49.1 34.8,49.1 C34.8,53.3 34.8,57.3 34.8,61.5 C36.8,61.3 38.5,61 40.2,60.9 C41.8,60.8 42.5,60.1 42.4,58.4 C42.3,55.1 42.4,51.7 42.4,48.4 C44.2,48 45.8,47.6 47.8,47.1 C47.8,51.2 47.8,55 47.8,59 C50,58.2 51.9,57.5 53.7,56.8 C53.7,53.3 53.8,50.1 53.7,46.8 C53.6,45.1 54.2,44.2 55.8,43.8 C56.8,43.5 57.8,43.1 59,42.7 C59,46.7 59,50.4 59,54.3 C60.6,53.6 61.9,52.9 63.3,52.6 C65.3,52.1 65.9,51 65.9,49 C65.8,43.1 65.8,37.1 65.9,31.2 C65.9,30.5 66.3,29.5 66.8,29.3 C67.9,28.9 69.1,28.8 70.6,28.6 C70.6,35.9 70.6,42.9 70.6,50 C75.4,49.7 78.1,46.7 85.3,49.7 Z M6.6,11.5 C6.8,11.7 6.9,11.9 7.1,12.1 C9.7,11.3 12.3,10.5 14.9,9.8 C24.2,7.4 39.1,8.4 40.3,15.1 C40.7,15.4 41.5,15.8 41.8,15.6 C43.2,14.5 45.1,13.4 45.7,11.9 C46.1,11 44.7,9 43.7,8 C40.8,5.4 37,5 33.2,4.6 C25.5,3.8 17.9,4.1 10.9,8 C9.3,8.8 8,10.3 6.6,11.5 Z" id="Shape"></path>
        </g>
    </g>
</svg>