<svg width="71px" height="109px" viewBox="0 0 71 109" version="1.1" xmlns="http://www.w3.org/2000/svg" xmlns:xlink="http://www.w3.org/1999/xlink">
    <g id="Page-1" stroke="none" stroke-width="1" fill="none" fill-rule="evenodd">
        <g id="icon4" fill-rule="nonzero" fill="#FFB2B8">
            <path d="M35.6,80.6 C34.6,84.2 33.6,83.7 32.7,87 C30.9,93.3 29.1,99.5 27.3,105.8 C27.1,106.5 26.6,107.3 26,107.8 C25,108.6 24.2,108.4 23.3,107.5 C20.8,104.7 18.2,102 15.7,99.2 C15.2,98.7 14.8,98.6 14.1,98.8 C10.7,99.9 7.3,101 4,102.1 C3.2,102.4 2.4,102.7 1.6,101.9 C0.8,101.1 0.6,100.2 0.9,99.1 C1.7,96.2 2.6,93.3 3.4,90.4 C7,78.1 10.5,77 14.1,64.7 C14.2,64.3 14.3,64 14.5,63.5 C16.1,63.8 17.2,64.7 17.8,66.1 C18.2,67 18.4,68 18.7,69 C19.5,71.8 21.1,72.4 23.7,71 C24.4,70.6 25,70.2 25.7,69.8 C28,68.7 30,69.1 31.7,71.1 C32.3,71.8 32.8,72.6 33.3,73.2 C34.9,75 36.5,75 38,73.2 C38.4,72.7 38.8,72.1 39.2,71.6 C41.2,69 43.5,68.5 46.4,70.2 C47.2,70.7 48,71.2 48.9,71.5 C50.4,72 51.5,71.6 52.2,70.1 C52.6,69.3 52.7,68.5 53,67.7 C53.6,65.7 54.5,64 56.9,63.5 C57.3,64.9 57.7,66.2 58.1,67.5 C62.2,81.5 66.2,84.4 70.3,98.4 C70.6,99.6 70.8,100.7 69.9,101.7 C69.3,102.3 68.7,102.5 67.8,102.2 C64.3,101 60.8,100 57.3,98.8 C56.5,98.5 56,98.7 55.5,99.3 C53.1,102 50.7,104.6 48.2,107.3 C46.7,108.9 44.8,108.4 44.1,106.3 C43.5,104.3 42.9,102.2 42.3,100.1 C40.2,92.8 38.1,89.2 36,81.9 C35.9,81.5 35.8,81.2 35.6,80.6 Z" id="Shape"></path>
            <path d="M13.6,9.9 C14.3,10 15.1,10.1 16,10.2 C18.3,10.3 19.8,9.3 20.4,7 C20.6,6.4 20.7,5.7 20.9,5.1 C21.6,2.9 22.9,2.4 25,3.5 C25.4,3.7 25.7,3.9 26.1,4.2 C28.8,5.8 30.8,5.4 32.6,2.9 C33,2.3 33.5,1.7 34,1.2 C35,0.3 36.1,0.3 37.1,1.2 C37.7,1.7 38.1,2.4 38.6,3 C40.4,5.3 42.4,5.8 44.9,4.3 C45.5,3.9 46.1,3.5 46.7,3.3 C48.2,2.7 49.3,3.1 49.9,4.6 C50.2,5.2 50.3,5.9 50.5,6.5 C51.3,9.5 53,10.7 56.1,10.2 C59.9,9.6 60.9,10.6 60.2,14.3 C59.7,17.4 60.8,19.1 63.9,19.9 C64.6,20.1 65.3,20.3 66,20.6 C67.3,21.2 67.7,22.2 67.2,23.5 C67,24.2 66.6,24.8 66.2,25.5 C64.6,28.2 65,30.2 67.5,32.1 C70.6,34.4 70.6,35.7 67.5,38 C65,39.8 64.6,41.9 66.2,44.6 C68.2,47.9 67.7,49.2 63.9,50.1 C60.9,50.8 59.7,52.5 60.1,55.6 C60.2,56.1 60.3,56.7 60.3,57.2 C60.4,59.4 59.3,60.4 57.1,60.1 C56.6,60 56.1,60 55.6,59.9 C53,59.5 51.2,60.6 50.5,63.1 C50.3,63.8 50.2,64.6 49.9,65.4 C49.3,67.1 48.1,67.6 46.4,66.9 C45.9,66.7 45.4,66.4 44.9,66.1 C42.2,64.4 40.1,64.8 38.2,67.5 C37.9,67.8 37.7,68.2 37.4,68.5 C36,70.2 34.5,70.1 33.1,68.5 C32.8,68.2 32.6,67.9 32.4,67.6 C30.4,64.9 28.5,64.5 25.6,66.3 C25.1,66.6 24.5,66.9 23.9,67.2 C22.5,67.7 21.4,67.3 20.8,65.9 C20.5,65.2 20.3,64.4 20.1,63.7 C19.3,60.9 17.6,59.8 14.8,60.2 C14,60.3 13.1,60.4 12.2,60.4 C10.9,60.3 10.3,59.5 10.2,58.2 C10.2,57.5 10.2,56.9 10.4,56.2 C11,53 9.8,51.2 6.6,50.4 C2.9,49.5 2.4,48.2 4.3,45 C6,42.2 5.6,40.2 2.9,38.3 C2.8,38.3 2.8,38.2 2.7,38.2 C0,36.2 0,34.7 2.7,32.7 C5.7,30.5 6.1,28.7 4.1,25.5 C3.9,25.2 3.8,25 3.6,24.7 C2.6,22.7 3.1,21.4 5.2,20.7 C5.7,20.5 6.2,20.4 6.7,20.3 C9.6,19.5 10.7,17.8 10.3,14.8 C10.2,14.3 10.1,13.7 10.1,13.2 C10.6,10.7 11.4,9.8 13.6,9.9 Z M35.5,59.2 C48.6,59.3 59.3,48.5 59.4,35.2 C59.5,22 48.9,11.1 35.8,11.1 C22.6,11 12,21.7 11.9,35 C11.8,48.3 22.4,59.1 35.5,59.2 Z" id="Shape"></path>
            <path d="M35.5,54.7 C24.9,54.7 16.3,45.9 16.3,35 C16.3,24.3 25.1,15.5 35.6,15.5 C46.3,15.6 54.9,24.3 54.9,35.1 C54.9,46 46.2,54.7 35.5,54.7 Z" id="Shape"></path>
        </g>
    </g>
</svg>