<svg width="521px" height="962px" viewBox="0 0 521 962" version="1.1" xmlns="http://www.w3.org/2000/svg" xmlns:xlink="http://www.w3.org/1999/xlink">
    <g id="Page-1" stroke="none" stroke-width="1" fill="none" fill-rule="evenodd">
        <g id="Artboard" transform="translate(-14547.000000, -3539.000000)" fill-rule="nonzero" fill="#FFFFFF">
            <g id="facebook-logo" transform="translate(14547.000000, 3539.000000)">
                <path d="M500.89,0.2 L376.24,0 C236.2,0 145.7,92.85 145.7,236.56 L145.7,345.63 L20.37,345.63 C9.54,345.63 0.77,354.41 0.77,365.24 L0.77,523.27 C0.77,534.1 9.55,542.87 20.37,542.87 L145.7,542.87 L145.7,941.63 C145.7,952.46 154.47,961.23 165.3,961.23 L328.82,961.23 C339.65,961.23 348.42,952.45 348.42,941.63 L348.42,542.87 L494.96,542.87 C505.79,542.87 514.56,534.1 514.56,523.27 L514.62,365.24 C514.62,360.04 512.55,355.06 508.88,351.38 C505.21,347.7 500.21,345.63 495.01,345.63 L348.42,345.63 L348.42,253.17 C348.42,208.73 359.01,186.17 416.9,186.17 L500.87,186.14 C511.69,186.14 520.46,177.36 520.46,166.54 L520.46,19.8 C520.46,8.99 511.7,0.22 500.89,0.2 Z" id="Shape"></path>
            </g>
        </g>
    </g>
</svg>