<svg width="1372px" height="784px" viewBox="0 0 1372 784" version="1.1" xmlns="http://www.w3.org/2000/svg" xmlns:xlink="http://www.w3.org/1999/xlink">
    <g id="Page-1" stroke="none" stroke-width="1" fill="none" fill-rule="evenodd">
        <g id="Artboard" transform="translate(-12404.000000, -3498.000000)" fill-rule="nonzero" fill="#FFFFFF">
            <g id="vk-social-network-logo" transform="translate(12404.000000, 3498.000000)">
                <path d="M1364.12427,707.245 C1362.46366,703.6675 1360.9156,700.7 1359.47758,698.3225 C1335.68391,655.485 1290.21485,602.905 1223.09791,540.5675 L1221.67989,539.14 L1220.96964,538.44 L1220.25187,537.7225 L1219.53161,537.7225 C1189.07052,508.695 1169.78099,489.1775 1161.70305,479.185 C1146.92267,460.15 1143.61146,440.8825 1151.68941,421.36 C1157.39648,406.61 1178.83429,375.46 1215.95281,327.8675 C1235.47742,302.645 1250.94055,282.43 1262.35971,267.2 C1344.7172,157.75 1380.4227,87.81 1369.46871,57.3525 L1365.21466,50.235 C1362.35612,45.95 1354.97844,42.03 1343.09161,38.455 C1331.17727,34.8875 1315.94922,34.2975 1297.37996,36.675 L1091.74508,38.095 C1088.41386,36.915 1083.65713,37.025 1077.45987,38.455 C1071.27012,39.885 1068.17399,40.6025 1068.17399,40.6025 L1064.59519,42.39 L1061.75415,44.5375 C1059.37329,45.9575 1056.75483,48.455 1053.89629,52.025 C1051.05276,55.5825 1048.67439,59.7575 1046.7737,64.515 C1024.38555,122.0925 998.931277,175.625 970.363373,225.11 C952.749459,254.6175 936.573568,280.19 921.800689,301.8425 C907.047816,323.4875 894.670809,339.435 884.682171,349.6575 C874.678528,359.89 865.65024,368.0875 857.542288,374.28 C849.44684,380.475 843.267089,383.0925 838.988031,382.135 C834.698969,381.1775 830.659998,380.2275 826.836106,379.2775 C820.17618,374.9925 814.81923,369.165 810.780259,361.79 C806.723781,354.415 803.992787,345.1325 802.564767,333.95 C801.14425,322.76 800.303944,313.135 800.063856,305.0425 C799.841275,296.96 799.943812,285.5275 800.426488,270.7775 C800.921668,256.02 801.14425,246.035 801.14425,240.8 C801.14425,222.715 801.496878,203.0875 802.204636,181.9125 C802.924898,160.7375 803.50761,143.96 803.995288,131.6 C804.480464,119.2275 804.705546,106.1375 804.705546,92.3375 C804.705546,78.5375 803.86524,67.715 802.204636,59.86 C800.564038,52.015 798.045621,44.4 794.726913,37.0175 C791.388197,29.6425 786.501417,23.9375 780.089082,19.8875 C773.664242,15.8425 765.676333,12.6325 756.170372,10.2475 C730.938683,4.54 698.809483,1.4525 659.767765,0.9725 C571.233024,0.0225 514.344807,5.7375 489.115619,18.11 C479.119479,23.3375 470.073685,30.48 461.98574,39.515 C453.415118,49.9875 452.219683,55.7025 458.406936,56.6425 C486.972339,60.92 507.194703,71.1525 519.096537,87.33 L523.385599,95.9025 C526.721814,102.0875 530.053027,113.0375 533.386741,128.7375 C536.715454,144.4375 538.863736,161.805 539.80908,180.83 C542.184945,215.5725 542.184945,245.3125 539.80908,270.0525 C537.425712,294.8025 535.174893,314.07 533.02661,327.87 C530.878328,341.67 527.667158,352.8525 523.385599,361.415 C519.096537,369.98 516.242998,375.215 514.812477,377.115 C513.384457,379.015 512.194024,380.2125 511.248679,380.6825 C505.061426,383.0525 498.626583,384.26 491.966658,384.26 C485.296729,384.26 477.208783,380.925 467.690317,374.26 C458.174352,367.595 448.298255,358.44 438.062027,346.78 C427.8258,335.1175 416.281596,318.82 403.424413,297.885 C390.577235,276.95 377.247381,252.2075 363.442353,223.6575 L352.020694,202.9525 C344.880594,189.6325 335.127042,170.2375 322.750035,144.785 C310.365525,119.3225 299.419038,94.6925 289.903073,70.9 C286.099188,60.9075 280.384607,53.3 272.769333,48.065 L269.195532,45.9175 C266.819667,44.0175 263.005778,42 257.773872,39.85 C252.534464,37.7025 247.067474,36.1625 241.350392,35.215 L45.7066448,36.635 C25.7143643,36.635 12.1494244,41.1625 5.00682332,50.205 L2.14828233,54.4825 C0.720262295,56.865 0,60.67 0,65.9075 C0,71.1425 1.42802004,77.5675 4.28656102,85.175 C32.8469617,152.275 63.9057723,216.9875 97.4629927,279.3225 C131.020213,341.6575 160.180832,391.87 184.927344,429.915 C209.678858,467.9875 234.908046,503.92 260.614907,537.695 C286.321769,571.4825 303.337965,593.135 311.663497,602.6475 C319.999033,612.1775 326.546417,619.3025 331.30565,624.06 L349.159652,641.1875 C360.583812,652.61 377.359922,666.29 399.495483,682.2275 C421.636046,698.175 446.147472,713.875 473.042266,729.3525 C499.942062,744.805 531.235958,757.415 566.941461,767.1675 C602.641962,776.93 637.389616,780.8475 671.189424,778.9575 L753.304328,778.9575 C769.957893,777.52 782.574987,772.285 791.15061,763.25 L793.991645,759.6725 C795.902341,756.8325 797.690492,752.42 799.341093,746.4825 C801.011701,740.535 801.842004,733.9825 801.842004,726.855 C801.354326,706.3975 802.912393,687.96 806.47369,671.545 C810.032486,655.135 814.088964,642.7625 818.625616,634.43 C823.159767,626.105 828.27663,619.08 833.971204,613.385 C839.678282,607.6775 843.744763,604.22 846.130632,603.03 C848.501495,601.8325 850.394685,601.02 851.822705,600.5325 C863.246865,596.7275 876.691761,600.4125 892.177401,611.605 C907.650536,622.7875 922.163321,636.595 935.738264,653.005 C949.305705,669.43 965.606641,687.8575 984.643574,708.315 C1003.69301,728.78 1020.34908,743.9925 1034.62428,754 L1048.89947,762.565 C1058.43295,768.28 1070.80995,773.515 1086.0455,778.2725 C1101.25354,783.0275 1114.57839,784.2175 1126.02006,781.84 L1308.80412,778.99 C1326.88321,778.99 1340.95083,775.9975 1350.92946,770.06 C1360.9281,764.1125 1366.86777,757.56 1368.78346,750.4325 C1370.69416,743.2975 1370.7967,735.2025 1369.1461,726.1525 C1367.45298,717.125 1365.78487,710.8125 1364.12427,707.245 Z" id="Shape"></path>
            </g>
        </g>
    </g>
</svg>