<svg width="122px" height="86px" viewBox="0 0 122 86" version="1.1" xmlns="http://www.w3.org/2000/svg" xmlns:xlink="http://www.w3.org/1999/xlink">
    <defs>
        <polygon id="path-1" points="60.7725 86 0.06 86 0.06 0.961 60.7725 0.961 121.485 0.961 121.485 86 60.7725 86"></polygon>
    </defs>
    <g id="Page-1" stroke="none" stroke-width="1" fill="none" fill-rule="evenodd">
        <g id="Artboard" transform="translate(-173.000000, -221.000000)">
            <g id="Group" transform="translate(173.000000, 221.000000)">
                <mask id="mask-2" fill="white">
                    <use xlink:href="#path-1"></use>
                </mask>
                <g id="Clip-2"></g>
                <path d="M48.594,61.703 L48.594,25.257 L80.155,43.481 L48.594,61.703 Z M118.946,14.239 C117.549,9.013 113.433,4.896 108.206,3.499 C98.732,0.961 60.742,0.961 60.742,0.961 C60.742,0.961 22.753,0.961 13.279,3.499 C8.052,4.896 3.936,9.013 2.539,14.239 C0,23.714 0,43.48 0,43.48 C0,43.48 0,63.247 2.539,72.721 C3.936,77.947 8.052,82.065 13.279,83.461 C22.753,86 60.742,86 60.742,86 C60.742,86 98.732,86 108.206,83.461 C113.433,82.065 117.549,77.947 118.946,72.721 C121.485,63.247 121.485,43.48 121.485,43.48 C121.485,43.48 121.485,23.714 118.946,14.239 L118.946,14.239 Z" id="Fill-1" fill="#FFFFFE" mask="url(#mask-2)"></path>
            </g>
        </g>
    </g>
</svg>